<svg width="512" height="512" viewBox="0 0 512 512" fill="none" xmlns="http://www.w3.org/2000/svg">
<rect width="512" height="512" fill="#FAF9F3"/>
<path d="M492 255.584C492 125.942 381.814 21 246 21L246 255.584L246 490.169C381.951 490.169 492 385.226 492 255.584Z" fill="white"/>
<path d="M246 255.584C246 125.942 135.814 21 0 21L-1.86211e-05 490.299C135.814 490.169 246 385.226 246 255.584Z" fill="white"/>
<path d="M179.452 146.407H166.806C132.968 146.407 107.675 154.553 90.9268 170.846C75.5459 185.771 67.8555 206.905 67.8555 234.249C67.8555 258.517 75.8307 278.056 91.7812 292.867C108.757 308.59 132.17 316.451 162.021 316.451H179.452V146.407ZM302.157 146.407H210.214V378.658H302.157V146.407Z" fill="#E577B9"/>
<path d="M210.628 146.407H302.571V378.658H210.628V146.407ZM330.94 209.64C330.94 184.461 337.321 167.542 350.081 158.883C362.158 150.794 384.887 146.749 418.27 146.749H435.53V179.049C435.53 204.798 428.979 223.141 415.877 234.078C402.547 245.016 379.59 250.484 347.005 250.484H330.94V209.64ZM330.94 268.258H347.005C379.134 268.258 402.091 274.638 415.877 287.398C428.979 299.589 435.53 318.844 435.53 345.162V379H418.27C385.571 379 362.841 374.101 350.081 364.303C337.321 354.391 330.94 336.617 330.94 310.982V268.258Z" fill="#5373F3"/>
</svg>
