<svg width="1296" height="692" viewBox="0 0 1296 692" fill="none" xmlns="http://www.w3.org/2000/svg">
<g clip-path="url(#clip0_2089_58)">
<rect width="1296" height="692" fill="#F4F2EA"/>
<g filter="url(#filter0_f_2089_58)">
<path d="M1107.66 789.839L1078.18 808.773V201.715H1107.66V789.839Z" fill="#B0CC9D"/>
<path d="M1104.32 531.517L1103.86 507.872L1238.03 426.078L1252.73 441.048L1104.32 531.517Z" fill="#B0CC9D"/>
<path d="M1181.31 258.967L1161.45 238.73L1078.18 323.576L1098.05 343.813L1181.31 258.967Z" fill="#B0CC9D"/>
<path d="M1024.39 238.738L1004.53 258.975L1087.8 343.821L1107.66 323.584L1024.39 238.738Z" fill="#B0CC9D"/>
<path d="M1257.3 505.649L1261.58 487.149L1183.18 468.325L1178.9 486.825L1257.3 505.649Z" fill="#B0CC9D"/>
<path d="M1206.8 392.215L1188.64 387.855L1170.17 467.735L1188.33 472.095L1206.8 392.215Z" fill="#B0CC9D"/>
<path d="M1083.81 531.517L1084.27 507.872L950.094 426.078L935.402 441.048L1083.81 531.517Z" fill="#B0CC9D"/>
<path d="M1009.23 486.868L1004.95 468.368L926.555 487.192L930.834 505.692L1009.23 486.868Z" fill="#B0CC9D"/>
<path d="M999.764 472.094L1017.92 467.734L999.446 387.855L981.289 392.214L999.764 472.094Z" fill="#B0CC9D"/>
<path d="M1170.2 301.368C1187.74 293.832 1200.44 271.837 1200.44 245.869C1200.44 219.901 1187.74 197.906 1170.2 190.371C1152.65 197.906 1139.96 219.901 1139.96 245.869C1139.96 271.837 1152.65 293.832 1170.2 301.368Z" fill="#F7D86B"/>
<path d="M1224.67 245.869C1217.27 227.992 1195.68 215.054 1170.2 215.054C1144.71 215.054 1123.13 227.992 1115.73 245.869C1123.13 263.746 1144.71 276.684 1170.2 276.684C1195.68 276.684 1217.27 263.746 1224.67 245.869Z" fill="#F7D86B"/>
<path d="M1017 301.368C1034.54 293.832 1047.24 271.837 1047.24 245.869C1047.24 219.901 1034.54 197.906 1017 190.371C999.456 197.906 986.758 219.901 986.758 245.869C986.758 271.837 999.456 293.832 1017 301.368Z" fill="#F7D86B"/>
<path d="M1071.46 245.869C1064.06 227.992 1042.48 215.054 1016.99 215.054C991.506 215.054 969.919 227.992 962.524 245.869C969.919 263.746 991.506 276.684 1016.99 276.684C1042.48 276.684 1064.06 263.746 1071.46 245.869Z" fill="#F7D86B"/>
<path d="M1266.37 564.747C1283.92 557.211 1296.61 535.216 1296.61 509.248C1296.61 483.28 1283.92 461.285 1266.37 453.75C1248.83 461.285 1236.13 483.28 1236.13 509.248C1236.13 535.216 1248.83 557.211 1266.37 564.747Z" fill="#F7D86B"/>
<path d="M1320.84 509.257C1313.44 491.38 1291.86 478.442 1266.37 478.442C1240.89 478.442 1219.3 491.38 1211.91 509.257C1219.3 527.134 1240.89 540.073 1266.37 540.073C1291.86 540.073 1313.44 527.134 1320.84 509.257Z" fill="#F7D86B"/>
<path d="M1039.23 563.963C1063.81 574.159 1097.61 565.23 1122.72 539.635C1147.84 514.041 1156.61 479.599 1146.6 454.561C1122.02 444.365 1088.23 453.294 1063.11 478.888C1037.99 504.483 1029.22 538.925 1039.23 563.963Z" fill="#F7D86B"/>
<path d="M1146.61 563.963C1156.62 538.915 1147.85 504.483 1122.73 478.888C1097.61 453.294 1063.81 444.365 1039.24 454.561C1029.23 479.608 1038 514.041 1063.12 539.635C1088.23 565.23 1122.04 574.159 1146.61 563.963Z" fill="#F7D86B"/>
<path d="M1092.92 426.47C1117.38 415.973 1135.07 385.304 1135.07 349.104C1135.07 312.903 1117.37 282.243 1092.92 271.737C1068.46 282.234 1050.77 312.903 1050.77 349.104C1050.77 385.304 1068.47 415.964 1092.92 426.47Z" fill="#F7D86B"/>
<path d="M1168.85 349.104C1158.55 324.184 1128.45 306.152 1092.92 306.152C1057.39 306.152 1027.3 324.193 1016.99 349.104C1027.29 374.024 1057.39 392.056 1092.92 392.056C1128.45 392.056 1158.54 374.015 1168.85 349.104Z" fill="#F7D86B"/>
<path d="M919.467 564.747C937.012 557.211 949.71 535.216 949.71 509.248C949.71 483.28 937.012 461.285 919.467 453.75C901.923 461.285 889.225 483.28 889.225 509.248C889.225 535.216 901.923 557.211 919.467 564.747Z" fill="#F7D86B"/>
<path d="M973.934 509.257C966.539 491.38 944.952 478.442 919.467 478.442C893.982 478.442 872.395 491.38 865 509.257C872.395 527.134 893.982 540.073 919.467 540.073C944.952 540.073 966.539 527.134 973.934 509.257Z" fill="#F7D86B"/>
<path d="M1232.08 465.194C1256.54 454.698 1274.23 424.028 1274.23 387.828C1274.23 351.627 1256.53 320.967 1232.08 310.461C1207.62 320.958 1189.93 351.627 1189.93 387.828C1189.93 424.028 1207.63 454.688 1232.08 465.194Z" fill="#F7D86B"/>
<path d="M1308.01 387.837C1297.71 362.917 1267.61 344.885 1232.08 344.885C1196.55 344.885 1166.46 362.926 1156.15 387.837C1166.45 412.757 1196.55 430.789 1232.08 430.789C1267.61 430.789 1297.7 412.748 1308.01 387.837Z" fill="#F7D86B"/>
<path d="M953.77 465.194C978.227 454.698 995.923 424.028 995.923 387.828C995.923 351.627 978.218 320.967 953.77 310.461C929.313 320.958 911.616 351.627 911.616 387.828C911.616 424.028 929.322 454.688 953.77 465.194Z" fill="#F7D86B"/>
<path d="M1029.69 387.837C1019.39 362.917 989.288 344.885 953.761 344.885C918.233 344.885 888.143 362.926 877.832 387.837C888.134 412.757 918.233 430.789 953.761 430.789C989.288 430.789 1019.38 412.748 1029.69 387.837Z" fill="#F7D86B"/>
<path d="M1092.92 233.733C1117.38 223.236 1135.07 192.567 1135.07 156.366C1135.07 120.166 1117.37 89.5056 1092.92 79C1068.46 89.4965 1050.77 120.166 1050.77 156.366C1050.77 192.567 1068.47 223.227 1092.92 233.733Z" fill="#F7D86B"/>
<path d="M1168.85 156.366C1158.55 131.446 1128.45 113.415 1092.92 113.415C1057.39 113.415 1027.3 131.455 1016.99 156.366C1027.29 181.287 1057.39 199.318 1092.92 199.318C1128.45 199.318 1158.54 181.278 1168.85 156.366Z" fill="#F7D86B"/>
</g>
<rect x="1030.5" y="568.5" width="174" height="45" rx="4.5" stroke="#29332A"/>
<path d="M1107.54 585.578L1104.48 597H1103.15L1100.88 589.312C1100.82 589.094 1100.75 588.875 1100.69 588.656C1100.63 588.432 1100.58 588.221 1100.52 588.023C1100.47 587.82 1100.43 587.643 1100.39 587.492C1100.36 587.336 1100.34 587.219 1100.32 587.141C1100.31 587.219 1100.29 587.333 1100.26 587.484C1100.23 587.635 1100.2 587.81 1100.15 588.008C1100.11 588.206 1100.05 588.417 1099.99 588.641C1099.93 588.865 1099.87 589.091 1099.8 589.32L1097.6 597H1096.27L1093.23 585.578H1094.62L1096.45 592.742C1096.52 592.982 1096.57 593.219 1096.62 593.453C1096.68 593.682 1096.73 593.906 1096.77 594.125C1096.82 594.344 1096.86 594.557 1096.9 594.766C1096.93 594.974 1096.97 595.177 1097 595.375C1097.03 595.172 1097.06 594.961 1097.1 594.742C1097.14 594.518 1097.19 594.292 1097.23 594.062C1097.29 593.833 1097.34 593.602 1097.4 593.367C1097.46 593.133 1097.53 592.898 1097.59 592.664L1099.65 585.578H1101.02L1103.16 592.719C1103.23 592.964 1103.3 593.206 1103.36 593.445C1103.42 593.685 1103.48 593.919 1103.52 594.148C1103.58 594.372 1103.62 594.589 1103.66 594.797C1103.7 595 1103.73 595.193 1103.77 595.375C1103.8 595.12 1103.85 594.852 1103.9 594.57C1103.95 594.289 1104.01 593.995 1104.08 593.688C1104.15 593.38 1104.23 593.062 1104.31 592.734L1106.15 585.578H1107.54ZM1110.45 588.438V597H1109.15V588.438H1110.45ZM1109.81 585.234C1110.03 585.234 1110.21 585.305 1110.36 585.445C1110.52 585.581 1110.59 585.794 1110.59 586.086C1110.59 586.372 1110.52 586.586 1110.36 586.727C1110.21 586.867 1110.03 586.938 1109.81 586.938C1109.59 586.938 1109.4 586.867 1109.25 586.727C1109.1 586.586 1109.03 586.372 1109.03 586.086C1109.03 585.794 1109.1 585.581 1109.25 585.445C1109.4 585.305 1109.59 585.234 1109.81 585.234ZM1117.98 598.883C1117.98 599.128 1118.05 599.312 1118.18 599.438C1118.31 599.568 1118.49 599.633 1118.73 599.633C1118.9 599.633 1119.05 599.62 1119.17 599.594C1119.3 599.573 1119.41 599.552 1119.49 599.531V600.375C1119.35 600.411 1119.2 600.443 1119.05 600.469C1118.9 600.5 1118.73 600.516 1118.52 600.516C1117.98 600.516 1117.57 600.385 1117.3 600.125C1117.04 599.865 1116.91 599.5 1116.91 599.031C1116.91 598.729 1116.99 598.435 1117.14 598.148C1117.29 597.867 1117.48 597.604 1117.71 597.359C1117.94 597.12 1118.17 596.914 1118.4 596.742L1119.58 596.609C1119.16 596.943 1118.84 597.237 1118.6 597.492C1118.37 597.753 1118.21 597.992 1118.12 598.211C1118.03 598.435 1117.98 598.659 1117.98 598.883ZM1116.49 588.281C1117.22 588.281 1117.85 588.443 1118.37 588.766C1118.89 589.089 1119.29 589.542 1119.56 590.125C1119.84 590.703 1119.98 591.38 1119.98 592.156V592.961H1114.06C1114.08 593.966 1114.33 594.732 1114.81 595.258C1115.3 595.784 1115.98 596.047 1116.86 596.047C1117.4 596.047 1117.88 595.997 1118.3 595.898C1118.71 595.799 1119.15 595.654 1119.59 595.461V596.602C1119.16 596.794 1118.73 596.935 1118.3 597.023C1117.88 597.112 1117.38 597.156 1116.8 597.156C1115.98 597.156 1115.26 596.99 1114.65 596.656C1114.04 596.318 1113.57 595.823 1113.23 595.172C1112.89 594.521 1112.72 593.724 1112.72 592.781C1112.72 591.859 1112.87 591.062 1113.18 590.391C1113.49 589.714 1113.93 589.193 1114.49 588.828C1115.06 588.464 1115.73 588.281 1116.49 588.281ZM1116.48 589.344C1115.78 589.344 1115.23 589.57 1114.82 590.023C1114.41 590.477 1114.16 591.109 1114.09 591.922H1118.62C1118.61 591.411 1118.53 590.964 1118.38 590.578C1118.22 590.188 1117.99 589.885 1117.68 589.672C1117.37 589.453 1116.97 589.344 1116.48 589.344ZM1125.61 597.156C1124.84 597.156 1124.16 596.997 1123.57 596.68C1122.98 596.362 1122.52 595.878 1122.2 595.227C1121.87 594.576 1121.7 593.755 1121.7 592.766C1121.7 591.729 1121.88 590.883 1122.22 590.227C1122.57 589.565 1123.05 589.076 1123.66 588.758C1124.27 588.44 1124.96 588.281 1125.73 588.281C1126.16 588.281 1126.57 588.326 1126.97 588.414C1127.37 588.497 1127.7 588.604 1127.95 588.734L1127.56 589.82C1127.3 589.716 1127 589.622 1126.66 589.539C1126.32 589.456 1126 589.414 1125.7 589.414C1125.11 589.414 1124.61 589.542 1124.22 589.797C1123.83 590.052 1123.53 590.427 1123.34 590.922C1123.14 591.417 1123.05 592.026 1123.05 592.75C1123.05 593.443 1123.14 594.034 1123.33 594.523C1123.52 595.013 1123.8 595.388 1124.18 595.648C1124.56 595.904 1125.03 596.031 1125.6 596.031C1126.05 596.031 1126.46 595.984 1126.83 595.891C1127.19 595.792 1127.52 595.677 1127.82 595.547V596.703C1127.53 596.849 1127.21 596.961 1126.86 597.039C1126.51 597.117 1126.09 597.156 1125.61 597.156ZM1133.15 588.281C1133.88 588.281 1134.5 588.443 1135.02 588.766C1135.54 589.089 1135.94 589.542 1136.22 590.125C1136.49 590.703 1136.63 591.38 1136.63 592.156V592.961H1130.72C1130.73 593.966 1130.98 594.732 1131.47 595.258C1131.95 595.784 1132.64 596.047 1133.52 596.047C1134.06 596.047 1134.54 595.997 1134.95 595.898C1135.37 595.799 1135.8 595.654 1136.25 595.461V596.602C1135.82 596.794 1135.39 596.935 1134.96 597.023C1134.54 597.112 1134.04 597.156 1133.46 597.156C1132.64 597.156 1131.92 596.99 1131.3 596.656C1130.7 596.318 1130.22 595.823 1129.88 595.172C1129.54 594.521 1129.38 593.724 1129.38 592.781C1129.38 591.859 1129.53 591.062 1129.84 590.391C1130.15 589.714 1130.59 589.193 1131.15 588.828C1131.72 588.464 1132.38 588.281 1133.15 588.281ZM1133.13 589.344C1132.44 589.344 1131.89 589.57 1131.48 590.023C1131.07 590.477 1130.82 591.109 1130.74 591.922H1135.27C1135.27 591.411 1135.19 590.964 1135.03 590.578C1134.88 590.188 1134.65 589.885 1134.34 589.672C1134.02 589.453 1133.62 589.344 1133.13 589.344ZM1137.8 600.844C1137.54 600.844 1137.31 600.823 1137.11 600.781C1136.91 600.745 1136.74 600.701 1136.59 600.648V599.594C1136.76 599.646 1136.92 599.685 1137.09 599.711C1137.25 599.742 1137.44 599.758 1137.65 599.758C1138 599.758 1138.29 599.659 1138.51 599.461C1138.73 599.263 1138.84 598.904 1138.84 598.383V588.438H1140.13V598.352C1140.13 598.872 1140.05 599.318 1139.88 599.688C1139.72 600.062 1139.46 600.349 1139.12 600.547C1138.77 600.745 1138.34 600.844 1137.8 600.844ZM1138.72 586.086C1138.72 585.794 1138.79 585.581 1138.94 585.445C1139.09 585.305 1139.28 585.234 1139.5 585.234C1139.71 585.234 1139.9 585.305 1140.05 585.445C1140.2 585.581 1140.28 585.794 1140.28 586.086C1140.28 586.372 1140.2 586.586 1140.05 586.727C1139.9 586.867 1139.71 586.938 1139.5 586.938C1139.28 586.938 1139.09 586.867 1138.94 586.727C1138.79 586.586 1138.72 586.372 1138.72 586.086Z" fill="#29332A"/>
<rect width="1296" height="692" fill="#CDDEC7" fill-opacity="0.2"/>
<path d="M84.496 575.88H83.704L78.16 591H76.216L82.36 574.2H85.816L91.936 591H89.992L84.496 575.88ZM79.216 584.904H89.008V586.584H79.216V584.904ZM95.581 588.576L95.773 588.552V595.8H93.973V579H95.629L95.749 581.232C96.117 580.56 96.661 579.992 97.381 579.528C98.101 579.064 99.005 578.832 100.093 578.832C101.133 578.832 102.069 579.088 102.901 579.6C103.733 580.096 104.389 580.808 104.869 581.736C105.349 582.648 105.589 583.736 105.589 585C105.589 586.248 105.357 587.336 104.893 588.264C104.445 589.176 103.805 589.888 102.973 590.4C102.157 590.912 101.197 591.168 100.093 591.168C98.941 591.168 97.989 590.92 97.237 590.424C96.485 589.928 95.933 589.312 95.581 588.576ZM103.645 585C103.645 583.624 103.285 582.536 102.565 581.736C101.861 580.92 100.909 580.512 99.709 580.512C98.957 580.512 98.277 580.688 97.669 581.04C97.077 581.392 96.613 581.904 96.277 582.576C95.941 583.248 95.773 584.056 95.773 585C95.773 585.928 95.941 586.728 96.277 587.4C96.613 588.072 97.077 588.592 97.669 588.96C98.277 589.312 98.957 589.488 99.709 589.488C100.909 589.488 101.861 589.088 102.565 588.288C103.285 587.472 103.645 586.376 103.645 585ZM108.528 573.72H110.328V591H108.528V573.72ZM114.349 579H116.125V591H114.349V579ZM115.261 576.6C114.893 576.6 114.589 576.48 114.349 576.24C114.109 576 113.989 575.704 113.989 575.352C113.989 574.984 114.109 574.68 114.349 574.44C114.589 574.2 114.893 574.08 115.261 574.08C115.597 574.08 115.885 574.2 116.125 574.44C116.381 574.68 116.509 574.984 116.509 575.352C116.509 575.704 116.381 576 116.125 576.24C115.885 576.48 115.597 576.6 115.261 576.6ZM120.176 573.72H122V584.208H123.104L127.832 579H130.376L124.712 585L130.4 591H127.832L123.104 585.768H122V591H120.176V573.72ZM140.11 591L139.966 588.84C139.63 589.576 139.134 590.152 138.478 590.568C137.822 590.968 136.99 591.168 135.982 591.168C135.118 591.168 134.382 591.032 133.774 590.76C133.166 590.488 132.694 590.104 132.358 589.608C132.038 589.096 131.878 588.496 131.878 587.808C131.878 586.8 132.254 585.976 133.006 585.336C133.758 584.68 134.846 584.28 136.27 584.136L139.966 583.728V582.768C139.966 582.096 139.718 581.56 139.222 581.16C138.726 580.744 138.054 580.536 137.206 580.536C136.374 580.536 135.678 580.728 135.118 581.112C134.574 581.496 134.198 582.048 133.99 582.768L132.358 582.192C132.678 581.136 133.262 580.312 134.11 579.72C134.974 579.128 136.022 578.832 137.254 578.832C138.678 578.832 139.782 579.2 140.566 579.936C141.366 580.656 141.766 581.64 141.766 582.888V591H140.11ZM139.966 585.264L136.246 585.696C135.446 585.792 134.838 586.016 134.422 586.368C134.006 586.704 133.798 587.152 133.798 587.712C133.798 588.272 133.998 588.72 134.398 589.056C134.814 589.392 135.406 589.56 136.174 589.56C137.054 589.56 137.774 589.384 138.334 589.032C138.894 588.68 139.302 588.208 139.558 587.616C139.83 587.008 139.966 586.352 139.966 585.648V585.264ZM150.39 591.168C149.222 591.168 148.198 590.912 147.318 590.4C146.438 589.888 145.75 589.176 145.254 588.264C144.774 587.336 144.534 586.264 144.534 585.048C144.534 583.816 144.774 582.736 145.254 581.808C145.75 580.864 146.438 580.136 147.318 579.624C148.198 579.096 149.222 578.832 150.39 578.832C151.622 578.832 152.702 579.12 153.63 579.696C154.558 580.256 155.23 581.04 155.646 582.048L153.99 582.624C153.75 581.984 153.31 581.48 152.67 581.112C152.046 580.728 151.318 580.536 150.486 580.536C149.67 580.536 148.958 580.72 148.35 581.088C147.758 581.456 147.294 581.976 146.958 582.648C146.638 583.32 146.478 584.112 146.478 585.024C146.478 586.368 146.838 587.448 147.558 588.264C148.278 589.064 149.238 589.464 150.438 589.464C151.254 589.464 151.982 589.28 152.622 588.912C153.262 588.544 153.734 588.048 154.038 587.424L155.67 588C155.238 588.992 154.558 589.768 153.63 590.328C152.702 590.888 151.622 591.168 150.39 591.168ZM158.878 590.688V579H160.678V590.712C160.678 591.752 160.47 592.648 160.054 593.4C159.654 594.152 159.11 594.728 158.422 595.128C157.75 595.544 157.014 595.768 156.214 595.8L155.95 594.144C156.878 594.064 157.598 593.72 158.11 593.112C158.622 592.52 158.878 591.712 158.878 590.688ZM159.79 576.6C160.142 576.6 160.438 576.48 160.678 576.24C160.918 576 161.038 575.704 161.038 575.352C161.038 574.984 160.918 574.68 160.678 574.44C160.438 574.2 160.142 574.08 159.79 574.08C159.438 574.08 159.134 574.2 158.878 574.44C158.638 574.68 158.518 574.984 158.518 575.352C158.518 575.704 158.638 576 158.878 576.24C159.134 576.48 159.438 576.6 159.79 576.6ZM172.149 591L172.005 588.84C171.669 589.576 171.173 590.152 170.517 590.568C169.861 590.968 169.029 591.168 168.021 591.168C167.157 591.168 166.421 591.032 165.813 590.76C165.205 590.488 164.733 590.104 164.397 589.608C164.077 589.096 163.917 588.496 163.917 587.808C163.917 586.8 164.293 585.976 165.045 585.336C165.797 584.68 166.885 584.28 168.309 584.136L172.005 583.728V582.768C172.005 582.096 171.757 581.56 171.261 581.16C170.765 580.744 170.093 580.536 169.245 580.536C168.413 580.536 167.717 580.728 167.157 581.112C166.613 581.496 166.237 582.048 166.029 582.768L164.397 582.192C164.717 581.136 165.301 580.312 166.149 579.72C167.013 579.128 168.061 578.832 169.293 578.832C170.717 578.832 171.821 579.2 172.605 579.936C173.405 580.656 173.805 581.64 173.805 582.888V591H172.149ZM172.005 585.264L168.285 585.696C167.485 585.792 166.877 586.016 166.461 586.368C166.045 586.704 165.837 587.152 165.837 587.712C165.837 588.272 166.037 588.72 166.437 589.056C166.853 589.392 167.445 589.56 168.213 589.56C169.093 589.56 169.813 589.384 170.373 589.032C170.933 588.68 171.341 588.208 171.597 587.616C171.869 587.008 172.005 586.352 172.005 585.648V585.264ZM193.307 581.424L193.115 581.448V573.72H194.915V591H193.259L193.139 588.768C192.771 589.44 192.219 590.008 191.483 590.472C190.763 590.936 189.867 591.168 188.795 591.168C187.691 591.168 186.723 590.92 185.891 590.424C185.075 589.912 184.435 589.192 183.971 588.264C183.523 587.336 183.299 586.248 183.299 585C183.299 583.752 183.523 582.672 183.971 581.76C184.435 580.832 185.075 580.112 185.891 579.6C186.723 579.088 187.691 578.832 188.795 578.832C189.931 578.832 190.875 579.08 191.627 579.576C192.379 580.072 192.939 580.688 193.307 581.424ZM185.243 585C185.243 586.376 185.595 587.472 186.299 588.288C187.003 589.088 187.963 589.488 189.179 589.488C189.931 589.488 190.603 589.312 191.195 588.96C191.787 588.608 192.251 588.096 192.587 587.424C192.939 586.752 193.115 585.944 193.115 585C193.115 584.056 192.939 583.256 192.587 582.6C192.251 581.928 191.787 581.416 191.195 581.064C190.603 580.696 189.931 580.512 189.179 580.512C187.979 580.512 187.019 580.92 186.299 581.736C185.595 582.536 185.243 583.624 185.243 585ZM203.782 591.168C202.646 591.168 201.63 590.92 200.734 590.424C199.838 589.928 199.134 589.224 198.622 588.312C198.11 587.384 197.854 586.288 197.854 585.024C197.854 583.744 198.11 582.64 198.622 581.712C199.15 580.784 199.862 580.072 200.758 579.576C201.67 579.08 202.694 578.832 203.83 578.832C204.966 578.832 205.982 579.08 206.878 579.576C207.79 580.072 208.502 580.784 209.014 581.712C209.542 582.624 209.806 583.712 209.806 584.976C209.806 586.256 209.542 587.36 209.014 588.288C208.486 589.216 207.766 589.928 206.854 590.424C205.942 590.92 204.918 591.168 203.782 591.168ZM203.758 589.464C204.462 589.464 205.126 589.312 205.75 589.008C206.374 588.688 206.878 588.2 207.262 587.544C207.662 586.872 207.862 586.024 207.862 585C207.862 583.96 207.67 583.112 207.286 582.456C206.902 581.8 206.398 581.32 205.774 581.016C205.166 580.696 204.51 580.536 203.806 580.536C203.102 580.536 202.446 580.696 201.838 581.016C201.23 581.32 200.734 581.808 200.35 582.48C199.982 583.136 199.798 583.976 199.798 585C199.798 586.04 199.982 586.888 200.35 587.544C200.718 588.2 201.198 588.688 201.79 589.008C202.398 589.312 203.054 589.464 203.758 589.464ZM219.481 579H221.137L221.257 580.728C221.609 580.152 222.081 579.696 222.673 579.36C223.281 579.008 224.001 578.832 224.833 578.832C225.681 578.832 226.449 579.04 227.137 579.456C227.841 579.856 228.385 580.456 228.769 581.256C229.137 580.44 229.697 579.832 230.449 579.432C231.201 579.032 232.033 578.832 232.945 578.832C233.841 578.832 234.633 579.032 235.321 579.432C236.009 579.816 236.545 580.4 236.929 581.184C237.313 581.952 237.505 582.92 237.505 584.088V591H235.705V584.304C235.705 583.056 235.433 582.112 234.889 581.472C234.361 580.816 233.601 580.488 232.609 580.488C231.601 580.488 230.801 580.84 230.209 581.544C229.617 582.232 229.321 583.256 229.321 584.616V591H227.521V584.304C227.521 583.056 227.265 582.112 226.753 581.472C226.241 580.816 225.489 580.488 224.497 580.488C223.489 580.488 222.697 580.84 222.121 581.544C221.561 582.232 221.281 583.256 221.281 584.616V591H219.481V579ZM246.18 591.168C245.044 591.168 244.028 590.92 243.132 590.424C242.236 589.928 241.532 589.224 241.02 588.312C240.508 587.384 240.252 586.288 240.252 585.024C240.252 583.744 240.508 582.64 241.02 581.712C241.548 580.784 242.26 580.072 243.156 579.576C244.068 579.08 245.092 578.832 246.228 578.832C247.364 578.832 248.38 579.08 249.276 579.576C250.188 580.072 250.9 580.784 251.412 581.712C251.94 582.624 252.204 583.712 252.204 584.976C252.204 586.256 251.94 587.36 251.412 588.288C250.884 589.216 250.164 589.928 249.252 590.424C248.34 590.92 247.316 591.168 246.18 591.168ZM246.156 589.464C246.86 589.464 247.524 589.312 248.148 589.008C248.772 588.688 249.276 588.2 249.66 587.544C250.06 586.872 250.26 586.024 250.26 585C250.26 583.96 250.068 583.112 249.684 582.456C249.3 581.8 248.796 581.32 248.172 581.016C247.564 580.696 246.908 580.536 246.204 580.536C245.5 580.536 244.844 580.696 244.236 581.016C243.628 581.32 243.132 581.808 242.748 582.48C242.38 583.136 242.196 583.976 242.196 585C242.196 586.04 242.38 586.888 242.748 587.544C243.116 588.2 243.596 588.688 244.188 589.008C244.796 589.312 245.452 589.464 246.156 589.464ZM255.153 579H256.809L256.905 580.704C257.289 580.112 257.793 579.656 258.417 579.336C259.041 579 259.769 578.832 260.601 578.832C261.513 578.832 262.313 579.032 263.001 579.432C263.689 579.816 264.225 580.4 264.609 581.184C264.993 581.952 265.185 582.92 265.185 584.088V591H263.385V584.304C263.385 583.056 263.113 582.112 262.569 581.472C262.041 580.816 261.273 580.488 260.265 580.488C259.225 580.488 258.409 580.832 257.817 581.52C257.241 582.208 256.953 583.224 256.953 584.568V591H255.153V579ZM269.036 579H270.812V591H269.036V579ZM269.948 576.6C269.58 576.6 269.276 576.48 269.036 576.24C268.796 576 268.676 575.704 268.676 575.352C268.676 574.984 268.796 574.68 269.036 574.44C269.276 574.2 269.58 574.08 269.948 574.08C270.284 574.08 270.572 574.2 270.812 574.44C271.068 574.68 271.196 574.984 271.196 575.352C271.196 575.704 271.068 576 270.812 576.24C270.572 576.48 270.284 576.6 269.948 576.6ZM275.632 579V575.64H277.432V579H280.624V580.68H277.432V587.136C277.432 587.872 277.584 588.408 277.888 588.744C278.208 589.08 278.608 589.28 279.088 589.344C279.584 589.408 280.096 589.408 280.624 589.344V590.904C280 591.048 279.384 591.088 278.776 591.024C278.184 590.96 277.648 590.784 277.168 590.496C276.704 590.192 276.328 589.768 276.04 589.224C275.768 588.68 275.632 587.984 275.632 587.136V580.68H273.832V579H275.632ZM288.485 591.168C287.349 591.168 286.333 590.92 285.437 590.424C284.541 589.928 283.837 589.224 283.325 588.312C282.813 587.384 282.557 586.288 282.557 585.024C282.557 583.744 282.813 582.64 283.325 581.712C283.853 580.784 284.565 580.072 285.461 579.576C286.373 579.08 287.397 578.832 288.533 578.832C289.669 578.832 290.685 579.08 291.581 579.576C292.493 580.072 293.205 580.784 293.717 581.712C294.245 582.624 294.509 583.712 294.509 584.976C294.509 586.256 294.245 587.36 293.717 588.288C293.189 589.216 292.469 589.928 291.557 590.424C290.645 590.92 289.621 591.168 288.485 591.168ZM288.461 589.464C289.165 589.464 289.829 589.312 290.453 589.008C291.077 588.688 291.581 588.2 291.965 587.544C292.365 586.872 292.565 586.024 292.565 585C292.565 583.96 292.373 583.112 291.989 582.456C291.605 581.8 291.101 581.32 290.477 581.016C289.869 580.696 289.213 580.536 288.509 580.536C287.805 580.536 287.149 580.696 286.541 581.016C285.933 581.32 285.437 581.808 285.053 582.48C284.685 583.136 284.501 583.976 284.501 585C284.501 586.04 284.685 586.888 285.053 587.544C285.421 588.2 285.901 588.688 286.493 589.008C287.101 589.312 287.757 589.464 288.461 589.464ZM297.457 579H299.113L299.209 580.752C299.529 580.32 299.913 579.952 300.361 579.648C300.825 579.344 301.329 579.136 301.873 579.024C302.433 578.896 303.025 578.888 303.649 579V580.8C302.977 580.672 302.369 580.672 301.825 580.8C301.297 580.928 300.841 581.168 300.457 581.52C300.073 581.872 299.777 582.32 299.569 582.864C299.361 583.392 299.257 584.008 299.257 584.712V591H297.457V579ZM311.29 591.168C310.154 591.168 309.138 590.92 308.242 590.424C307.346 589.928 306.642 589.224 306.13 588.312C305.618 587.384 305.362 586.288 305.362 585.024C305.362 583.744 305.618 582.64 306.13 581.712C306.658 580.784 307.37 580.072 308.266 579.576C309.178 579.08 310.202 578.832 311.338 578.832C312.474 578.832 313.49 579.08 314.386 579.576C315.298 580.072 316.01 580.784 316.522 581.712C317.05 582.624 317.314 583.712 317.314 584.976C317.314 586.256 317.05 587.36 316.522 588.288C315.994 589.216 315.274 589.928 314.362 590.424C313.45 590.92 312.426 591.168 311.29 591.168ZM311.266 589.464C311.97 589.464 312.634 589.312 313.258 589.008C313.882 588.688 314.386 588.2 314.77 587.544C315.17 586.872 315.37 586.024 315.37 585C315.37 583.96 315.178 583.112 314.794 582.456C314.41 581.8 313.906 581.32 313.282 581.016C312.674 580.696 312.018 580.536 311.314 580.536C310.61 580.536 309.954 580.696 309.346 581.016C308.738 581.32 308.242 581.808 307.858 582.48C307.49 583.136 307.306 583.976 307.306 585C307.306 586.04 307.49 586.888 307.858 587.544C308.226 588.2 308.706 588.688 309.298 589.008C309.906 589.312 310.562 589.464 311.266 589.464ZM324.438 591H322.806L319.038 579H320.862L323.622 588.768L326.718 579H328.35L331.398 588.744L334.134 579H335.91L332.166 591H330.51L327.486 581.688L324.438 591ZM345.868 591L345.724 588.84C345.388 589.576 344.892 590.152 344.236 590.568C343.58 590.968 342.748 591.168 341.74 591.168C340.876 591.168 340.14 591.032 339.532 590.76C338.924 590.488 338.452 590.104 338.116 589.608C337.796 589.096 337.636 588.496 337.636 587.808C337.636 586.8 338.012 585.976 338.764 585.336C339.516 584.68 340.604 584.28 342.028 584.136L345.724 583.728V582.768C345.724 582.096 345.476 581.56 344.98 581.16C344.484 580.744 343.812 580.536 342.964 580.536C342.132 580.536 341.436 580.728 340.876 581.112C340.332 581.496 339.956 582.048 339.748 582.768L338.116 582.192C338.436 581.136 339.02 580.312 339.868 579.72C340.732 579.128 341.78 578.832 343.012 578.832C344.436 578.832 345.54 579.2 346.324 579.936C347.124 580.656 347.524 581.64 347.524 582.888V591H345.868ZM345.724 585.264L342.004 585.696C341.204 585.792 340.596 586.016 340.18 586.368C339.764 586.704 339.556 587.152 339.556 587.712C339.556 588.272 339.756 588.72 340.156 589.056C340.572 589.392 341.164 589.56 341.932 589.56C342.812 589.56 343.532 589.384 344.092 589.032C344.652 588.68 345.06 588.208 345.316 587.616C345.588 587.008 345.724 586.352 345.724 585.648V585.264ZM351.036 579H352.692L352.788 580.704C353.172 580.112 353.676 579.656 354.3 579.336C354.924 579 355.652 578.832 356.484 578.832C357.396 578.832 358.196 579.032 358.884 579.432C359.572 579.816 360.108 580.4 360.492 581.184C360.876 581.952 361.068 582.92 361.068 584.088V591H359.268V584.304C359.268 583.056 358.996 582.112 358.452 581.472C357.924 580.816 357.156 580.488 356.148 580.488C355.108 580.488 354.292 580.832 353.7 581.52C353.124 582.208 352.836 583.224 352.836 584.568V591H351.036V579ZM364.919 579H366.695V591H364.919V579ZM365.831 576.6C365.463 576.6 365.159 576.48 364.919 576.24C364.679 576 364.559 575.704 364.559 575.352C364.559 574.984 364.679 574.68 364.919 574.44C365.159 574.2 365.463 574.08 365.831 574.08C366.167 574.08 366.455 574.2 366.695 574.44C366.951 574.68 367.079 574.984 367.079 575.352C367.079 575.704 366.951 576 366.695 576.24C366.455 576.48 366.167 576.6 365.831 576.6ZM378.258 591L378.114 588.84C377.778 589.576 377.282 590.152 376.626 590.568C375.97 590.968 375.138 591.168 374.13 591.168C373.266 591.168 372.53 591.032 371.922 590.76C371.314 590.488 370.842 590.104 370.506 589.608C370.186 589.096 370.026 588.496 370.026 587.808C370.026 586.8 370.402 585.976 371.154 585.336C371.906 584.68 372.994 584.28 374.418 584.136L378.114 583.728V582.768C378.114 582.096 377.866 581.56 377.37 581.16C376.874 580.744 376.202 580.536 375.354 580.536C374.522 580.536 373.826 580.728 373.266 581.112C372.722 581.496 372.346 582.048 372.138 582.768L370.506 582.192C370.826 581.136 371.41 580.312 372.258 579.72C373.122 579.128 374.17 578.832 375.402 578.832C376.826 578.832 377.93 579.2 378.714 579.936C379.514 580.656 379.914 581.64 379.914 582.888V591H378.258ZM378.114 585.264L374.394 585.696C373.594 585.792 372.986 586.016 372.57 586.368C372.154 586.704 371.946 587.152 371.946 587.712C371.946 588.272 372.146 588.72 372.546 589.056C372.962 589.392 373.554 589.56 374.322 589.56C375.202 589.56 375.922 589.384 376.482 589.032C377.042 588.68 377.45 588.208 377.706 587.616C377.978 587.008 378.114 586.352 378.114 585.648V585.264ZM391.761 588.576L391.953 588.552V595.8H390.153V579H391.809L391.929 581.232C392.297 580.56 392.841 579.992 393.561 579.528C394.281 579.064 395.185 578.832 396.273 578.832C397.313 578.832 398.249 579.088 399.081 579.6C399.913 580.096 400.569 580.808 401.049 581.736C401.529 582.648 401.769 583.736 401.769 585C401.769 586.248 401.537 587.336 401.073 588.264C400.625 589.176 399.985 589.888 399.153 590.4C398.337 590.912 397.377 591.168 396.273 591.168C395.121 591.168 394.169 590.92 393.417 590.424C392.665 589.928 392.113 589.312 391.761 588.576ZM399.825 585C399.825 583.624 399.465 582.536 398.745 581.736C398.041 580.92 397.089 580.512 395.889 580.512C395.137 580.512 394.457 580.688 393.849 581.04C393.257 581.392 392.793 581.904 392.457 582.576C392.121 583.248 391.953 584.056 391.953 585C391.953 585.928 392.121 586.728 392.457 587.4C392.793 588.072 393.257 588.592 393.849 588.96C394.457 589.312 395.137 589.488 395.889 589.488C397.089 589.488 398.041 589.088 398.745 588.288C399.465 587.472 399.825 586.376 399.825 585ZM409.891 591.168C408.755 591.168 407.739 590.92 406.843 590.424C405.947 589.928 405.243 589.224 404.731 588.312C404.219 587.384 403.963 586.288 403.963 585.024C403.963 583.744 404.219 582.64 404.731 581.712C405.259 580.784 405.971 580.072 406.867 579.576C407.779 579.08 408.803 578.832 409.939 578.832C411.075 578.832 412.091 579.08 412.987 579.576C413.899 580.072 414.611 580.784 415.123 581.712C415.651 582.624 415.915 583.712 415.915 584.976C415.915 586.256 415.651 587.36 415.123 588.288C414.595 589.216 413.875 589.928 412.963 590.424C412.051 590.92 411.027 591.168 409.891 591.168ZM409.867 589.464C410.571 589.464 411.235 589.312 411.859 589.008C412.483 588.688 412.987 588.2 413.371 587.544C413.771 586.872 413.971 586.024 413.971 585C413.971 583.96 413.779 583.112 413.395 582.456C413.011 581.8 412.507 581.32 411.883 581.016C411.275 580.696 410.619 580.536 409.915 580.536C409.211 580.536 408.555 580.696 407.947 581.016C407.339 581.32 406.843 581.808 406.459 582.48C406.091 583.136 405.907 583.976 405.907 585C405.907 586.04 406.091 586.888 406.459 587.544C406.827 588.2 407.307 588.688 407.899 589.008C408.507 589.312 409.163 589.464 409.867 589.464ZM427.216 580.56L420.472 589.32H427.288V591H418.216V589.44L424.96 580.68H418.288V579H427.216V580.56ZM430.708 579H432.484V591H430.708V579ZM431.62 576.6C431.252 576.6 430.948 576.48 430.708 576.24C430.468 576 430.348 575.704 430.348 575.352C430.348 574.984 430.468 574.68 430.708 574.44C430.948 574.2 431.252 574.08 431.62 574.08C431.956 574.08 432.244 574.2 432.484 574.44C432.74 574.68 432.868 574.984 432.868 575.352C432.868 575.704 432.74 576 432.484 576.24C432.244 576.48 431.956 576.6 431.62 576.6ZM441.72 591.168C440.584 591.168 439.568 590.92 438.672 590.424C437.776 589.928 437.072 589.224 436.56 588.312C436.048 587.384 435.792 586.288 435.792 585.024C435.792 583.744 436.048 582.64 436.56 581.712C437.088 580.784 437.8 580.072 438.696 579.576C439.608 579.08 440.632 578.832 441.768 578.832C442.904 578.832 443.92 579.08 444.816 579.576C445.728 580.072 446.44 580.784 446.952 581.712C447.48 582.624 447.744 583.712 447.744 584.976C447.744 586.256 447.48 587.36 446.952 588.288C446.424 589.216 445.704 589.928 444.792 590.424C443.88 590.92 442.856 591.168 441.72 591.168ZM441.696 589.464C442.4 589.464 443.064 589.312 443.688 589.008C444.312 588.688 444.816 588.2 445.2 587.544C445.6 586.872 445.8 586.024 445.8 585C445.8 583.96 445.608 583.112 445.224 582.456C444.84 581.8 444.336 581.32 443.712 581.016C443.104 580.696 442.448 580.536 441.743 580.536C441.039 580.536 440.384 580.696 439.776 581.016C439.168 581.32 438.672 581.808 438.288 582.48C437.92 583.136 437.736 583.976 437.736 585C437.736 586.04 437.92 586.888 438.288 587.544C438.656 588.2 439.136 588.688 439.728 589.008C440.336 589.312 440.992 589.464 441.696 589.464ZM450.692 579H452.348L452.468 580.728C452.82 580.152 453.292 579.696 453.884 579.36C454.492 579.008 455.212 578.832 456.044 578.832C456.892 578.832 457.66 579.04 458.348 579.456C459.052 579.856 459.596 580.456 459.98 581.256C460.348 580.44 460.908 579.832 461.66 579.432C462.412 579.032 463.244 578.832 464.156 578.832C465.052 578.832 465.844 579.032 466.532 579.432C467.22 579.816 467.756 580.4 468.14 581.184C468.524 581.952 468.716 582.92 468.716 584.088V591H466.916V584.304C466.916 583.056 466.644 582.112 466.1 581.472C465.572 580.816 464.812 580.488 463.82 580.488C462.812 580.488 462.012 580.84 461.42 581.544C460.828 582.232 460.532 583.256 460.532 584.616V591H458.732V584.304C458.732 583.056 458.476 582.112 457.964 581.472C457.452 580.816 456.7 580.488 455.708 580.488C454.7 580.488 453.908 580.84 453.332 581.544C452.772 582.232 452.492 583.256 452.492 584.616V591H450.692V579ZM482.023 591H480.391L480.271 589.272C479.903 589.88 479.407 590.352 478.783 590.688C478.159 591.008 477.431 591.168 476.599 591.168C475.671 591.168 474.863 590.976 474.175 590.592C473.487 590.208 472.951 589.632 472.567 588.864C472.199 588.096 472.015 587.128 472.015 585.96V579H473.791V585.768C473.791 587 474.055 587.936 474.583 588.576C475.127 589.2 475.903 589.512 476.911 589.512C477.935 589.512 478.743 589.184 479.335 588.528C479.943 587.856 480.247 586.848 480.247 585.504V579H482.023V591ZM494.019 588.576L494.211 588.552V595.8H492.411V579H494.067L494.187 581.232C494.555 580.56 495.099 579.992 495.819 579.528C496.539 579.064 497.443 578.832 498.531 578.832C499.571 578.832 500.507 579.088 501.339 579.6C502.171 580.096 502.827 580.808 503.307 581.736C503.787 582.648 504.027 583.736 504.027 585C504.027 586.248 503.795 587.336 503.331 588.264C502.883 589.176 502.243 589.888 501.411 590.4C500.595 590.912 499.635 591.168 498.531 591.168C497.379 591.168 496.427 590.92 495.675 590.424C494.923 589.928 494.371 589.312 494.019 588.576ZM502.083 585C502.083 583.624 501.723 582.536 501.003 581.736C500.299 580.92 499.347 580.512 498.147 580.512C497.395 580.512 496.715 580.688 496.107 581.04C495.515 581.392 495.051 581.904 494.715 582.576C494.379 583.248 494.211 584.056 494.211 585C494.211 585.928 494.379 586.728 494.715 587.4C495.051 588.072 495.515 588.592 496.107 588.96C496.715 589.312 497.395 589.488 498.147 589.488C499.347 589.488 500.299 589.088 501.003 588.288C501.723 587.472 502.083 586.376 502.083 585ZM515.101 579H516.973L510.109 595.8H508.381L510.421 590.832L505.573 579H507.541L511.381 588.696L515.101 579ZM517.614 582.384L522.702 580.272V581.808L517.614 583.92V582.384ZM519.198 574.008H521.118V591H519.198V574.008ZM524.707 573.72H526.531V584.208H527.635L532.363 579H534.907L529.243 585L534.931 591H532.363L527.635 585.768H526.531V591H524.707V573.72ZM544.497 573.84V575.352L539.985 577.848V576.552L544.497 573.84ZM542.313 591.168C541.177 591.168 540.161 590.92 539.265 590.424C538.369 589.928 537.665 589.224 537.153 588.312C536.641 587.384 536.385 586.288 536.385 585.024C536.385 583.744 536.641 582.64 537.153 581.712C537.681 580.784 538.393 580.072 539.289 579.576C540.201 579.08 541.225 578.832 542.361 578.832C543.497 578.832 544.513 579.08 545.409 579.576C546.321 580.072 547.033 580.784 547.545 581.712C548.073 582.624 548.337 583.712 548.337 584.976C548.337 586.256 548.073 587.36 547.545 588.288C547.017 589.216 546.297 589.928 545.385 590.424C544.473 590.92 543.449 591.168 542.313 591.168ZM542.289 589.464C542.993 589.464 543.657 589.312 544.281 589.008C544.905 588.688 545.409 588.2 545.793 587.544C546.193 586.872 546.393 586.024 546.393 585C546.393 583.96 546.201 583.112 545.817 582.456C545.433 581.8 544.929 581.32 544.305 581.016C543.697 580.696 543.041 580.536 542.337 580.536C541.633 580.536 540.977 580.696 540.369 581.016C539.761 581.32 539.265 581.808 538.881 582.48C538.513 583.136 538.329 583.976 538.329 585C538.329 586.04 538.513 586.888 538.881 587.544C539.249 588.2 539.729 588.688 540.321 589.008C540.929 589.312 541.585 589.464 542.289 589.464ZM555.462 591H553.83L550.062 579H551.886L554.646 588.768L557.742 579H559.374L562.422 588.744L565.158 579H566.934L563.19 591H561.534L558.51 581.688L555.462 591ZM78.208 608H79.984V620H78.208V608ZM79.12 605.6C78.752 605.6 78.448 605.48 78.208 605.24C77.968 605 77.848 604.704 77.848 604.352C77.848 603.984 77.968 603.68 78.208 603.44C78.448 603.2 78.752 603.08 79.12 603.08C79.456 603.08 79.744 603.2 79.984 603.44C80.24 603.68 80.368 603.984 80.368 604.352C80.368 604.704 80.24 605 79.984 605.24C79.744 605.48 79.456 605.6 79.12 605.6ZM95.9461 620.168C94.8101 620.168 93.7941 619.92 92.8981 619.424C92.0021 618.928 91.2981 618.224 90.7861 617.312C90.2741 616.384 90.0181 615.288 90.0181 614.024C90.0181 612.744 90.2741 611.64 90.7861 610.712C91.3141 609.784 92.0261 609.072 92.9221 608.576C93.8341 608.08 94.8581 607.832 95.9941 607.832C97.1301 607.832 98.1461 608.08 99.0421 608.576C99.9541 609.072 100.666 609.784 101.178 610.712C101.706 611.624 101.97 612.712 101.97 613.976C101.97 615.256 101.706 616.36 101.178 617.288C100.65 618.216 99.9301 618.928 99.0181 619.424C98.1061 619.92 97.0821 620.168 95.9461 620.168ZM95.9221 618.464C96.6261 618.464 97.2901 618.312 97.9141 618.008C98.5381 617.688 99.0421 617.2 99.4261 616.544C99.8261 615.872 100.026 615.024 100.026 614C100.026 612.96 99.8341 612.112 99.4501 611.456C99.0661 610.8 98.5621 610.32 97.9381 610.016C97.3301 609.696 96.6741 609.536 95.9701 609.536C95.2661 609.536 94.6101 609.696 94.0021 610.016C93.3941 610.32 92.8981 610.808 92.5141 611.48C92.1461 612.136 91.9621 612.976 91.9621 614C91.9621 615.04 92.1461 615.888 92.5141 616.544C92.8821 617.2 93.3621 617.688 93.9541 618.008C94.5621 618.312 95.2181 618.464 95.9221 618.464ZM106.526 610.424C106.878 609.688 107.43 609.072 108.182 608.576C108.934 608.08 109.886 607.832 111.038 607.832C112.142 607.832 113.102 608.088 113.918 608.6C114.75 609.112 115.39 609.832 115.838 610.76C116.302 611.672 116.534 612.752 116.534 614C116.534 615.248 116.302 616.336 115.838 617.264C115.374 618.192 114.726 618.912 113.894 619.424C113.078 619.92 112.126 620.168 111.038 620.168C109.95 620.168 109.046 619.936 108.326 619.472C107.606 619.008 107.062 618.44 106.694 617.768L106.574 620H104.918V602.72H106.718V610.448L106.526 610.424ZM114.59 614C114.59 612.624 114.23 611.536 113.51 610.736C112.806 609.92 111.854 609.512 110.654 609.512C109.902 609.512 109.222 609.696 108.614 610.064C108.022 610.416 107.558 610.928 107.222 611.6C106.886 612.256 106.718 613.056 106.718 614C106.718 614.944 106.886 615.752 107.222 616.424C107.558 617.096 108.022 617.608 108.614 617.96C109.222 618.312 109.902 618.488 110.654 618.488C111.854 618.488 112.806 618.088 113.51 617.288C114.23 616.472 114.59 615.376 114.59 614ZM119.737 619.688V608H121.537V619.712C121.537 620.752 121.329 621.648 120.913 622.4C120.513 623.152 119.969 623.728 119.281 624.128C118.609 624.544 117.873 624.768 117.073 624.8L116.809 623.144C117.737 623.064 118.457 622.72 118.969 622.112C119.481 621.52 119.737 620.712 119.737 619.688ZM120.649 605.6C121.001 605.6 121.297 605.48 121.537 605.24C121.777 605 121.897 604.704 121.897 604.352C121.897 603.984 121.777 603.68 121.537 603.44C121.297 603.2 121.001 603.08 120.649 603.08C120.297 603.08 119.993 603.2 119.737 603.44C119.497 603.68 119.377 603.984 119.377 604.352C119.377 604.704 119.497 605 119.737 605.24C119.993 605.48 120.297 605.6 120.649 605.6ZM133.008 620L132.864 617.84C132.528 618.576 132.032 619.152 131.376 619.568C130.72 619.968 129.888 620.168 128.88 620.168C128.016 620.168 127.28 620.032 126.672 619.76C126.064 619.488 125.592 619.104 125.256 618.608C124.936 618.096 124.776 617.496 124.776 616.808C124.776 615.8 125.152 614.976 125.904 614.336C126.656 613.68 127.744 613.28 129.168 613.136L132.864 612.728V611.768C132.864 611.096 132.616 610.56 132.12 610.16C131.624 609.744 130.952 609.536 130.104 609.536C129.272 609.536 128.576 609.728 128.016 610.112C127.472 610.496 127.096 611.048 126.888 611.768L125.256 611.192C125.576 610.136 126.16 609.312 127.008 608.72C127.872 608.128 128.92 607.832 130.152 607.832C131.576 607.832 132.68 608.2 133.464 608.936C134.264 609.656 134.664 610.64 134.664 611.888V620H133.008ZM132.864 614.264L129.144 614.696C128.344 614.792 127.736 615.016 127.32 615.368C126.904 615.704 126.696 616.152 126.696 616.712C126.696 617.272 126.896 617.72 127.296 618.056C127.712 618.392 128.304 618.56 129.072 618.56C129.952 618.56 130.672 618.384 131.232 618.032C131.792 617.68 132.2 617.208 132.456 616.616C132.728 616.008 132.864 615.352 132.864 614.648V614.264ZM142.352 620H140.72L136.952 608H138.776L141.536 617.768L144.632 608H146.264L149.312 617.744L152.048 608H153.824L150.08 620H148.424L145.4 610.688L142.352 620ZM163.638 602.84V604.352L159.126 606.848V605.552L163.638 602.84ZM161.454 620.168C160.318 620.168 159.302 619.92 158.406 619.424C157.51 618.928 156.806 618.224 156.294 617.312C155.782 616.384 155.526 615.288 155.526 614.024C155.526 612.744 155.782 611.64 156.294 610.712C156.822 609.784 157.534 609.072 158.43 608.576C159.342 608.08 160.366 607.832 161.502 607.832C162.638 607.832 163.654 608.08 164.55 608.576C165.462 609.072 166.174 609.784 166.686 610.712C167.214 611.624 167.478 612.712 167.478 613.976C167.478 615.256 167.214 616.36 166.686 617.288C166.158 618.216 165.438 618.928 164.526 619.424C163.614 619.92 162.59 620.168 161.454 620.168ZM161.43 618.464C162.134 618.464 162.798 618.312 163.422 618.008C164.046 617.688 164.55 617.2 164.934 616.544C165.334 615.872 165.534 615.024 165.534 614C165.534 612.96 165.342 612.112 164.958 611.456C164.574 610.8 164.07 610.32 163.446 610.016C162.838 609.696 162.182 609.536 161.478 609.536C160.774 609.536 160.118 609.696 159.51 610.016C158.902 610.32 158.406 610.808 158.022 611.48C157.654 612.136 157.47 612.976 157.47 614C157.47 615.04 157.654 615.888 158.022 616.544C158.39 617.2 158.87 617.688 159.462 618.008C160.07 618.312 160.726 618.464 161.43 618.464ZM174.602 620H172.97L169.202 608H171.026L173.786 617.768L176.882 608H178.514L181.562 617.744L184.298 608H186.074L182.33 620H180.674L177.65 610.688L174.602 620ZM202.758 620L202.614 617.84C202.278 618.576 201.782 619.152 201.126 619.568C200.47 619.968 199.638 620.168 198.63 620.168C197.766 620.168 197.03 620.032 196.422 619.76C195.814 619.488 195.342 619.104 195.006 618.608C194.686 618.096 194.526 617.496 194.526 616.808C194.526 615.8 194.902 614.976 195.654 614.336C196.406 613.68 197.494 613.28 198.918 613.136L202.614 612.728V611.768C202.614 611.096 202.366 610.56 201.87 610.16C201.374 609.744 200.702 609.536 199.854 609.536C199.022 609.536 198.326 609.728 197.766 610.112C197.222 610.496 196.846 611.048 196.638 611.768L195.006 611.192C195.326 610.136 195.91 609.312 196.758 608.72C197.622 608.128 198.67 607.832 199.902 607.832C201.326 607.832 202.43 608.2 203.214 608.936C204.014 609.656 204.414 610.64 204.414 611.888V620H202.758ZM202.614 614.264L198.894 614.696C198.094 614.792 197.486 615.016 197.07 615.368C196.654 615.704 196.446 616.152 196.446 616.712C196.446 617.272 196.646 617.72 197.046 618.056C197.462 618.392 198.054 618.56 198.822 618.56C199.702 618.56 200.422 618.384 200.982 618.032C201.542 617.68 201.95 617.208 202.206 616.616C202.478 616.008 202.614 615.352 202.614 614.648V614.264ZM207.926 602.72H209.726V620H207.926V602.72ZM218.427 620.168C217.307 620.168 216.307 619.896 215.427 619.352C214.563 618.808 213.883 618.064 213.387 617.12C212.891 616.176 212.643 615.096 212.643 613.88C212.643 612.712 212.891 611.672 213.387 610.76C213.883 609.848 214.563 609.136 215.427 608.624C216.291 608.096 217.275 607.832 218.379 607.832C219.467 607.832 220.435 608.072 221.283 608.552C222.147 609.032 222.819 609.696 223.299 610.544C223.779 611.392 224.003 612.36 223.971 613.448C223.971 613.624 223.963 613.808 223.947 614C223.931 614.192 223.915 614.4 223.899 614.624H214.611C214.643 615.376 214.827 616.04 215.163 616.616C215.499 617.192 215.939 617.648 216.483 617.984C217.043 618.304 217.675 618.464 218.379 618.464C219.307 618.464 220.091 618.288 220.731 617.936C221.387 617.584 221.859 617.08 222.147 616.424L223.707 617.048C223.227 618.056 222.531 618.832 221.619 619.376C220.707 619.904 219.643 620.168 218.427 620.168ZM222.003 613.064C222.019 612.376 221.867 611.768 221.547 611.24C221.243 610.712 220.811 610.296 220.251 609.992C219.691 609.688 219.043 609.536 218.307 609.536C217.667 609.536 217.083 609.688 216.555 609.992C216.027 610.296 215.587 610.72 215.235 611.264C214.899 611.792 214.699 612.392 214.635 613.064H222.003ZM226.934 608H228.59L228.686 609.752C229.006 609.32 229.39 608.952 229.838 608.648C230.302 608.344 230.806 608.136 231.35 608.024C231.91 607.896 232.502 607.888 233.126 608V609.8C232.454 609.672 231.846 609.672 231.302 609.8C230.774 609.928 230.318 610.168 229.934 610.52C229.55 610.872 229.254 611.32 229.046 611.864C228.838 612.392 228.734 613.008 228.734 613.712V620H226.934V608ZM244.798 608H246.454V617.792C246.454 619.264 246.126 620.52 245.47 621.56C244.814 622.616 243.862 623.416 242.614 623.96C241.366 624.52 239.846 624.8 238.054 624.8L237.766 623.144C240.022 623.112 241.734 622.64 242.902 621.728C244.07 620.832 244.654 619.52 244.654 617.792V617.528L244.846 617.576C244.478 618.28 243.926 618.888 243.19 619.4C242.454 619.896 241.502 620.152 240.334 620.168C239.23 620.168 238.262 619.92 237.43 619.424C236.614 618.912 235.974 618.192 235.51 617.264C235.062 616.336 234.838 615.248 234.838 614C234.838 612.752 235.062 611.672 235.51 610.76C235.974 609.832 236.614 609.112 237.43 608.6C238.262 608.088 239.23 607.832 240.334 607.832C241.054 607.832 241.694 607.944 242.254 608.168C242.814 608.376 243.294 608.664 243.694 609.032C244.094 609.384 244.422 609.784 244.678 610.232L244.798 608ZM236.782 614C236.782 615.376 237.134 616.472 237.838 617.288C238.558 618.088 239.526 618.488 240.742 618.488C241.478 618.488 242.142 618.312 242.734 617.96C243.326 617.608 243.79 617.096 244.126 616.424C244.478 615.752 244.654 614.944 244.654 614C244.654 613.056 244.478 612.256 244.126 611.6C243.79 610.928 243.326 610.416 242.734 610.064C242.142 609.696 241.478 609.512 240.742 609.512C239.542 609.512 238.582 609.92 237.862 610.736C237.142 611.552 236.782 612.64 236.782 614ZM250.497 608H252.273V620H250.497V608ZM251.409 605.6C251.041 605.6 250.737 605.48 250.497 605.24C250.257 605 250.137 604.704 250.137 604.352C250.137 603.984 250.257 603.68 250.497 603.44C250.737 603.2 251.041 603.08 251.409 603.08C251.745 603.08 252.033 603.2 252.273 603.44C252.529 603.68 252.657 603.984 252.657 604.352C252.657 604.704 252.529 605 252.273 605.24C252.033 605.48 251.745 605.6 251.409 605.6ZM256.685 608H258.461V620H256.685V608ZM257.597 605.6C257.229 605.6 256.925 605.48 256.685 605.24C256.445 605 256.325 604.704 256.325 604.352C256.325 603.984 256.445 603.68 256.685 603.44C256.925 603.2 257.229 603.08 257.597 603.08C257.933 603.08 258.221 603.2 258.461 603.44C258.717 603.68 258.845 603.984 258.845 604.352C258.845 604.704 258.717 605 258.461 605.24C258.221 605.48 257.933 605.6 257.597 605.6Z" fill="#6E7C6B"/>
</g>
<defs>
<filter id="filter0_f_2089_58" x="825.7" y="39.7" width="534.439" height="808.373" filterUnits="userSpaceOnUse" color-interpolation-filters="sRGB">
<feFlood flood-opacity="0" result="BackgroundImageFix"/>
<feBlend mode="normal" in="SourceGraphic" in2="BackgroundImageFix" result="shape"/>
<feGaussianBlur stdDeviation="19.65" result="effect1_foregroundBlur_2089_58"/>
</filter>
<clipPath id="clip0_2089_58">
<rect width="1296" height="692" fill="white"/>
</clipPath>
</defs>
</svg>
